<?xml version="1.0" encoding="UTF-8"?>
<svg width="64" height="64" viewBox="0 0 64 64" xmlns="http://www.w3.org/2000/svg">
  <title>Weather Icon</title>
  <!-- Sun -->
  <circle cx="32" cy="24" r="10" fill="#FDB813"/>
  <!-- Sun rays -->
  <g stroke="#FDB813" stroke-width="2">
    <line x1="32" y1="4" x2="32" y2="12"/>
    <line x1="32" y1="36" x2="32" y2="44"/>
    <line x1="12" y1="24" x2="20" y2="24"/>
    <line x1="44" y1="24" x2="52" y2="24"/>
    <line x1="18" y1="10" x2="23" y2="15"/>
    <line x1="41" y1="33" x2="46" y2="38"/>
    <line x1="18" y1="38" x2="23" y2="33"/>
    <line x1="41" y1="15" x2="46" y2="10"/>
  </g>
  <!-- Cloud -->
  <path d="M22 46h22a8 8 0 0 0 0-16 11 11 0 0 0-21-3A9 9 0 0 0 22 46z"
        fill="#E0E0E0"/>
</svg>
